<mxfile host="app.diagrams.net" modified="2024-04-15T18:13:37.867Z" agent="Mozilla/5.0 (Macintosh; Intel Mac OS X 10_15_7) AppleWebKit/537.36 (KHTML, like Gecko) Chrome/123.0.0.0 Safari/537.36" etag="GOhE4i7AqAaWFN0QtzYx" version="23.1.5" type="device">
  <diagram name="PÃ¡gina-1" id="NjSdwOmiIwXVztQAF8Lo">
    <mxGraphModel dx="1156" dy="212" grid="1" gridSize="10" guides="1" tooltips="1" connect="1" arrows="1" fold="1" page="1" pageScale="1" pageWidth="827" pageHeight="1169" math="0" shadow="0">
      <root>
        <mxCell id="0" />
        <mxCell id="1" parent="0" />
        <mxCell id="mgZLQg_ETMRa4hPbAOP7-61" value="&lt;h4&gt;Trajectory Input&lt;/h4&gt;" style="rounded=1;whiteSpace=wrap;html=1;fillColor=none;verticalAlign=top;labelPosition=right;verticalLabelPosition=bottom;align=left;spacing=-15;spacingTop=0;spacingLeft=-100;spacingRight=0;fontColor=#0000CC;labelBorderColor=none;strokeColor=#0000CC;arcSize=5;" parent="1" vertex="1">
          <mxGeometry x="2170" y="168" width="180" height="240" as="geometry" />
        </mxCell>
        <mxCell id="mgZLQg_ETMRa4hPbAOP7-62" value="&lt;h4&gt;Mixed Input / Ensemble&lt;/h4&gt;" style="rounded=1;whiteSpace=wrap;html=1;fillColor=none;verticalAlign=top;labelPosition=center;verticalLabelPosition=bottom;align=center;spacing=-15;spacingTop=1;spacingLeft=0;spacingRight=0;fontColor=#EBC75E;labelBorderColor=none;strokeColor=#EBC75E;arcSize=12;" parent="1" vertex="1">
          <mxGeometry x="1996" y="254" width="140" height="154" as="geometry" />
        </mxCell>
        <mxCell id="mgZLQg_ETMRa4hPbAOP7-60" value="&lt;h4&gt;Feature Input&lt;/h4&gt;" style="rounded=1;whiteSpace=wrap;html=1;fillColor=none;verticalAlign=top;labelPosition=left;verticalLabelPosition=bottom;align=right;spacing=-15;spacingTop=1;spacingLeft=0;spacingRight=-80;fontColor=#009900;labelBorderColor=none;strokeColor=#009900;arcSize=6;" parent="1" vertex="1">
          <mxGeometry x="1670" y="247" width="300" height="160" as="geometry" />
        </mxCell>
        <mxCell id="mgZLQg_ETMRa4hPbAOP7-5" value="methods" style="shape=folder;fontStyle=1;spacingTop=10;tabWidth=40;tabHeight=14;tabPosition=left;html=1;whiteSpace=wrap;horizontal=1;verticalAlign=top;fillColor=none;" parent="1" vertex="1">
          <mxGeometry x="260" y="307" width="160" height="436" as="geometry" />
        </mxCell>
        <mxCell id="n9qyGrMY-b-BzYaa1yog-2" value="mat-data" style="shape=umlFrame;whiteSpace=wrap;html=1;pointerEvents=0;width=110;height=30;" parent="1" vertex="1">
          <mxGeometry x="150" y="20" width="170" height="190" as="geometry" />
        </mxCell>
        <mxCell id="n9qyGrMY-b-BzYaa1yog-4" value="preprocess" style="shape=module;align=left;spacingLeft=20;align=center;verticalAlign=top;whiteSpace=wrap;html=1;jettyWidth=16;jettyHeight=6;" parent="1" vertex="1">
          <mxGeometry x="170" y="96" width="130" height="30" as="geometry" />
        </mxCell>
        <mxCell id="n9qyGrMY-b-BzYaa1yog-5" value="generator" style="shape=module;align=left;spacingLeft=20;align=center;verticalAlign=top;whiteSpace=wrap;html=1;jettyWidth=16;jettyHeight=6;" parent="1" vertex="1">
          <mxGeometry x="170" y="60" width="130" height="30" as="geometry" />
        </mxCell>
        <mxCell id="n9qyGrMY-b-BzYaa1yog-6" value="mat-view" style="shape=umlFrame;whiteSpace=wrap;html=1;pointerEvents=0;width=120;height=26;" parent="1" vertex="1">
          <mxGeometry x="-160" y="274" width="170" height="130" as="geometry" />
        </mxCell>
        <mxCell id="n9qyGrMY-b-BzYaa1yog-7" value="web-app &lt;br&gt;&lt;i&gt;(Movelets &amp;amp; MAT)&lt;/i&gt;" style="shape=module;align=left;spacingLeft=20;align=center;verticalAlign=top;whiteSpace=wrap;html=1;jettyWidth=16;jettyHeight=6;" parent="1" vertex="1">
          <mxGeometry x="-140" y="350" width="130" height="41" as="geometry" />
        </mxCell>
        <mxCell id="n9qyGrMY-b-BzYaa1yog-8" value="graphics" style="shape=module;align=left;spacingLeft=20;align=center;verticalAlign=top;whiteSpace=wrap;html=1;jettyWidth=16;jettyHeight=6;" parent="1" vertex="1">
          <mxGeometry x="-140" y="314" width="130" height="30" as="geometry" />
        </mxCell>
        <mxCell id="n9qyGrMY-b-BzYaa1yog-35" style="rounded=0;orthogonalLoop=1;jettySize=auto;html=1;endArrow=open;dashed=1;endFill=0;exitX=0.512;exitY=0;exitDx=0;exitDy=0;exitPerimeter=0;" parent="1" source="n9qyGrMY-b-BzYaa1yog-9" target="n9qyGrMY-b-BzYaa1yog-2" edge="1">
          <mxGeometry relative="1" as="geometry" />
        </mxCell>
        <mxCell id="ncjso_DGpGOnADHclqbK-1" style="edgeStyle=orthogonalEdgeStyle;rounded=0;orthogonalLoop=1;jettySize=auto;html=1;dashed=1;strokeColor=default;align=center;verticalAlign=middle;fontFamily=Helvetica;fontSize=11;fontColor=default;labelBackgroundColor=default;endArrow=open;endFill=0;" edge="1" parent="1" source="n9qyGrMY-b-BzYaa1yog-9" target="BebV0c_RTAwMKaFlxQ5s-1">
          <mxGeometry relative="1" as="geometry" />
        </mxCell>
        <mxCell id="n9qyGrMY-b-BzYaa1yog-9" value="movelets" style="shape=umlFrame;whiteSpace=wrap;html=1;pointerEvents=0;width=120;height=25;" parent="1" vertex="1">
          <mxGeometry x="490" y="285.5" width="170" height="190" as="geometry" />
        </mxCell>
        <mxCell id="n9qyGrMY-b-BzYaa1yog-10" value="MLP (movelets)" style="shape=module;align=left;spacingLeft=20;align=center;verticalAlign=top;whiteSpace=wrap;html=1;jettyWidth=16;jettyHeight=6;fillColor=#d5e8d4;strokeColor=#82b366;" parent="1" vertex="1">
          <mxGeometry x="270" y="599" width="130" height="30" as="geometry" />
        </mxCell>
        <mxCell id="mgZLQg_ETMRa4hPbAOP7-8" style="edgeStyle=orthogonalEdgeStyle;rounded=0;orthogonalLoop=1;jettySize=auto;html=1;entryX=1;entryY=0.5;entryDx=0;entryDy=0;endArrow=open;dashed=1;endFill=0;" parent="1" source="n9qyGrMY-b-BzYaa1yog-11" target="n9qyGrMY-b-BzYaa1yog-21" edge="1">
          <mxGeometry relative="1" as="geometry">
            <Array as="points">
              <mxPoint x="410" y="723" />
              <mxPoint x="410" y="540" />
            </Array>
          </mxGeometry>
        </mxCell>
        <mxCell id="mgZLQg_ETMRa4hPbAOP7-9" style="edgeStyle=orthogonalEdgeStyle;rounded=0;orthogonalLoop=1;jettySize=auto;html=1;entryX=1;entryY=0.5;entryDx=0;entryDy=0;endArrow=open;dashed=1;endFill=0;" parent="1" source="n9qyGrMY-b-BzYaa1yog-11" target="n9qyGrMY-b-BzYaa1yog-20" edge="1">
          <mxGeometry relative="1" as="geometry">
            <Array as="points">
              <mxPoint x="410" y="723" />
              <mxPoint x="410" y="577" />
            </Array>
          </mxGeometry>
        </mxCell>
        <mxCell id="mgZLQg_ETMRa4hPbAOP7-10" style="edgeStyle=orthogonalEdgeStyle;rounded=0;orthogonalLoop=1;jettySize=auto;html=1;entryX=1;entryY=0.5;entryDx=0;entryDy=0;endArrow=open;dashed=1;endFill=0;" parent="1" source="n9qyGrMY-b-BzYaa1yog-11" target="n9qyGrMY-b-BzYaa1yog-10" edge="1">
          <mxGeometry relative="1" as="geometry">
            <Array as="points">
              <mxPoint x="410" y="723" />
              <mxPoint x="410" y="614" />
            </Array>
          </mxGeometry>
        </mxCell>
        <mxCell id="n9qyGrMY-b-BzYaa1yog-11" value="TEC" style="shape=module;align=left;spacingLeft=20;align=center;verticalAlign=top;whiteSpace=wrap;html=1;jettyWidth=16;jettyHeight=6;fillColor=#fff2cc;strokeColor=#d6b656;" parent="1" vertex="1">
          <mxGeometry x="270" y="708" width="130" height="30" as="geometry" />
        </mxCell>
        <mxCell id="n9qyGrMY-b-BzYaa1yog-17" style="rounded=0;orthogonalLoop=1;jettySize=auto;html=1;dashed=1;endArrow=open;endFill=0;" parent="1" source="n9qyGrMY-b-BzYaa1yog-12" target="n9qyGrMY-b-BzYaa1yog-2" edge="1">
          <mxGeometry relative="1" as="geometry" />
        </mxCell>
        <mxCell id="n9qyGrMY-b-BzYaa1yog-23" style="rounded=0;orthogonalLoop=1;jettySize=auto;html=1;endArrow=open;dashed=1;endFill=0;" parent="1" source="n9qyGrMY-b-BzYaa1yog-12" target="n9qyGrMY-b-BzYaa1yog-6" edge="1">
          <mxGeometry relative="1" as="geometry" />
        </mxCell>
        <mxCell id="n9qyGrMY-b-BzYaa1yog-33" style="rounded=0;orthogonalLoop=1;jettySize=auto;html=1;endArrow=open;dashed=1;endFill=0;" parent="1" source="n9qyGrMY-b-BzYaa1yog-12" target="n9qyGrMY-b-BzYaa1yog-19" edge="1">
          <mxGeometry relative="1" as="geometry" />
        </mxCell>
        <mxCell id="n9qyGrMY-b-BzYaa1yog-12" value="automatize" style="shape=umlFrame;whiteSpace=wrap;html=1;pointerEvents=0;width=120;height=27;" parent="1" vertex="1">
          <mxGeometry x="40" y="273" width="170" height="235" as="geometry" />
        </mxCell>
        <mxCell id="n9qyGrMY-b-BzYaa1yog-13" value="run" style="shape=module;align=left;spacingLeft=20;align=center;verticalAlign=top;whiteSpace=wrap;html=1;jettyWidth=16;jettyHeight=6;" parent="1" vertex="1">
          <mxGeometry x="60" y="350" width="130" height="30" as="geometry" />
        </mxCell>
        <mxCell id="n9qyGrMY-b-BzYaa1yog-14" value="results" style="shape=module;align=left;spacingLeft=20;align=center;verticalAlign=top;whiteSpace=wrap;html=1;jettyWidth=16;jettyHeight=6;" parent="1" vertex="1">
          <mxGeometry x="60" y="313" width="130" height="30" as="geometry" />
        </mxCell>
        <mxCell id="n9qyGrMY-b-BzYaa1yog-16" value="datasets" style="shape=module;align=left;spacingLeft=20;align=center;verticalAlign=top;whiteSpace=wrap;html=1;jettyWidth=16;jettyHeight=6;" parent="1" vertex="1">
          <mxGeometry x="60" y="387" width="130" height="30" as="geometry" />
        </mxCell>
        <mxCell id="n9qyGrMY-b-BzYaa1yog-32" style="rounded=0;orthogonalLoop=1;jettySize=auto;html=1;endArrow=open;dashed=1;endFill=0;exitX=1;exitY=0.202;exitDx=0;exitDy=0;exitPerimeter=0;" parent="1" source="n9qyGrMY-b-BzYaa1yog-19" target="n9qyGrMY-b-BzYaa1yog-9" edge="1">
          <mxGeometry relative="1" as="geometry">
            <mxPoint x="460" y="362.1250000000001" as="sourcePoint" />
            <mxPoint x="502.70491803278696" y="297" as="targetPoint" />
          </mxGeometry>
        </mxCell>
        <mxCell id="n9qyGrMY-b-BzYaa1yog-34" style="rounded=0;orthogonalLoop=1;jettySize=auto;html=1;endArrow=open;dashed=1;endFill=0;" parent="1" source="n9qyGrMY-b-BzYaa1yog-19" target="n9qyGrMY-b-BzYaa1yog-2" edge="1">
          <mxGeometry relative="1" as="geometry" />
        </mxCell>
        <mxCell id="n9qyGrMY-b-BzYaa1yog-19" value="mat-classification" style="shape=umlFrame;whiteSpace=wrap;html=1;pointerEvents=0;width=130;height=27;" parent="1" vertex="1">
          <mxGeometry x="250" y="273" width="190" height="520" as="geometry" />
        </mxCell>
        <mxCell id="n9qyGrMY-b-BzYaa1yog-20" value="POI-S" style="shape=module;align=left;spacingLeft=20;align=center;verticalAlign=top;whiteSpace=wrap;html=1;jettyWidth=16;jettyHeight=6;fillColor=#d5e8d4;strokeColor=#82b366;" parent="1" vertex="1">
          <mxGeometry x="271" y="562" width="130" height="30" as="geometry" />
        </mxCell>
        <mxCell id="n9qyGrMY-b-BzYaa1yog-21" value="MARC" style="shape=module;align=left;spacingLeft=20;align=center;verticalAlign=top;whiteSpace=wrap;html=1;jettyWidth=16;jettyHeight=6;fillColor=#dae8fc;strokeColor=#6c8ebf;" parent="1" vertex="1">
          <mxGeometry x="271" y="525" width="130" height="30" as="geometry" />
        </mxCell>
        <mxCell id="n9qyGrMY-b-BzYaa1yog-22" value="web-app" style="shape=module;align=left;spacingLeft=20;align=center;verticalAlign=top;whiteSpace=wrap;html=1;jettyWidth=16;jettyHeight=6;" parent="1" vertex="1">
          <mxGeometry x="60" y="425" width="130" height="30" as="geometry" />
        </mxCell>
        <mxCell id="n9qyGrMY-b-BzYaa1yog-24" value="RF&amp;nbsp; (movelets)" style="shape=module;align=left;spacingLeft=20;align=center;verticalAlign=top;whiteSpace=wrap;html=1;jettyWidth=16;jettyHeight=6;fillColor=#d5e8d4;strokeColor=#82b366;" parent="1" vertex="1">
          <mxGeometry x="270" y="635" width="130" height="30" as="geometry" />
        </mxCell>
        <mxCell id="n9qyGrMY-b-BzYaa1yog-25" value="SVM&amp;nbsp;(movelets)" style="shape=module;align=left;spacingLeft=20;align=center;verticalAlign=top;whiteSpace=wrap;html=1;jettyWidth=16;jettyHeight=6;fillColor=#d5e8d4;strokeColor=#82b366;" parent="1" vertex="1">
          <mxGeometry x="270" y="671" width="130" height="30" as="geometry" />
        </mxCell>
        <mxCell id="n9qyGrMY-b-BzYaa1yog-26" value="DeepestST" style="shape=module;align=left;spacingLeft=20;align=center;verticalAlign=top;whiteSpace=wrap;html=1;jettyWidth=16;jettyHeight=6;fillColor=#dae8fc;strokeColor=#6c8ebf;" parent="1" vertex="1">
          <mxGeometry x="270" y="341" width="130" height="30" as="geometry" />
        </mxCell>
        <mxCell id="n9qyGrMY-b-BzYaa1yog-27" value="MAT RF" style="shape=module;align=left;spacingLeft=20;align=center;verticalAlign=top;whiteSpace=wrap;html=1;jettyWidth=16;jettyHeight=6;fillColor=#dae8fc;strokeColor=#6c8ebf;" parent="1" vertex="1">
          <mxGeometry x="270" y="378" width="130" height="30" as="geometry" />
        </mxCell>
        <mxCell id="n9qyGrMY-b-BzYaa1yog-28" value="MAT XGBoost" style="shape=module;align=left;spacingLeft=20;align=center;verticalAlign=top;whiteSpace=wrap;html=1;jettyWidth=16;jettyHeight=6;fillColor=#dae8fc;strokeColor=#6c8ebf;" parent="1" vertex="1">
          <mxGeometry x="270" y="414" width="130" height="30" as="geometry" />
        </mxCell>
        <mxCell id="n9qyGrMY-b-BzYaa1yog-29" value="TULVAE" style="shape=module;align=left;spacingLeft=20;align=center;verticalAlign=top;whiteSpace=wrap;html=1;jettyWidth=16;jettyHeight=6;fillColor=#dae8fc;strokeColor=#6c8ebf;" parent="1" vertex="1">
          <mxGeometry x="270" y="451" width="130" height="30" as="geometry" />
        </mxCell>
        <mxCell id="n9qyGrMY-b-BzYaa1yog-30" value="BITULER" style="shape=module;align=left;spacingLeft=20;align=center;verticalAlign=top;whiteSpace=wrap;html=1;jettyWidth=16;jettyHeight=6;fillColor=#dae8fc;strokeColor=#6c8ebf;" parent="1" vertex="1">
          <mxGeometry x="270" y="488" width="130" height="30" as="geometry" />
        </mxCell>
        <mxCell id="n9qyGrMY-b-BzYaa1yog-36" value="converter" style="shape=module;align=left;spacingLeft=20;align=center;verticalAlign=top;whiteSpace=wrap;html=1;jettyWidth=16;jettyHeight=6;" parent="1" vertex="1">
          <mxGeometry x="170" y="132" width="130" height="30" as="geometry" />
        </mxCell>
        <mxCell id="mgZLQg_ETMRa4hPbAOP7-1" value="datasets" style="shape=module;align=left;spacingLeft=20;align=center;verticalAlign=top;whiteSpace=wrap;html=1;jettyWidth=16;jettyHeight=6;" parent="1" vertex="1">
          <mxGeometry x="170" y="167" width="130" height="30" as="geometry" />
        </mxCell>
        <mxCell id="mgZLQg_ETMRa4hPbAOP7-2" style="rounded=0;orthogonalLoop=1;jettySize=auto;html=1;endArrow=open;dashed=1;endFill=0;" parent="1" source="n9qyGrMY-b-BzYaa1yog-6" target="n9qyGrMY-b-BzYaa1yog-2" edge="1">
          <mxGeometry relative="1" as="geometry" />
        </mxCell>
        <mxCell id="mgZLQg_ETMRa4hPbAOP7-6" value="scripts" style="shape=folder;fontStyle=1;spacingTop=10;tabWidth=40;tabHeight=10;tabPosition=left;html=1;whiteSpace=wrap;" parent="1" vertex="1">
          <mxGeometry x="274" y="753" width="126" height="30" as="geometry" />
        </mxCell>
        <mxCell id="mgZLQg_ETMRa4hPbAOP7-7" value="scripts" style="shape=folder;fontStyle=1;spacingTop=10;tabWidth=40;tabHeight=10;tabPosition=left;html=1;whiteSpace=wrap;" parent="1" vertex="1">
          <mxGeometry x="65" y="469" width="125" height="30" as="geometry" />
        </mxCell>
        <mxCell id="mgZLQg_ETMRa4hPbAOP7-38" style="edgeStyle=orthogonalEdgeStyle;rounded=0;orthogonalLoop=1;jettySize=auto;html=1;endArrow=block;endFill=0;" parent="1" source="mgZLQg_ETMRa4hPbAOP7-11" target="mgZLQg_ETMRa4hPbAOP7-26" edge="1">
          <mxGeometry relative="1" as="geometry">
            <Array as="points">
              <mxPoint x="1980" y="271" />
            </Array>
          </mxGeometry>
        </mxCell>
        <mxCell id="mgZLQg_ETMRa4hPbAOP7-11" value="MLP (movelets)" style="shape=module;align=left;spacingLeft=20;align=center;verticalAlign=top;whiteSpace=wrap;html=1;jettyWidth=16;jettyHeight=6;fillColor=#d5e8d4;strokeColor=#82b366;" parent="1" vertex="1">
          <mxGeometry x="1834" y="255.5" width="130" height="30" as="geometry" />
        </mxCell>
        <mxCell id="mgZLQg_ETMRa4hPbAOP7-12" value="TEC" style="shape=module;align=left;spacingLeft=20;align=center;verticalAlign=top;whiteSpace=wrap;html=1;jettyWidth=16;jettyHeight=6;fillColor=#fff2cc;strokeColor=#d6b656;" parent="1" vertex="1">
          <mxGeometry x="2001" y="266.5" width="130" height="30" as="geometry" />
        </mxCell>
        <mxCell id="mgZLQg_ETMRa4hPbAOP7-36" style="edgeStyle=orthogonalEdgeStyle;rounded=0;orthogonalLoop=1;jettySize=auto;html=1;endArrow=block;endFill=0;" parent="1" source="mgZLQg_ETMRa4hPbAOP7-13" target="mgZLQg_ETMRa4hPbAOP7-26" edge="1">
          <mxGeometry relative="1" as="geometry">
            <Array as="points">
              <mxPoint x="1980" y="312" />
            </Array>
          </mxGeometry>
        </mxCell>
        <mxCell id="mgZLQg_ETMRa4hPbAOP7-13" value="POI-S" style="shape=module;align=left;spacingLeft=20;align=center;verticalAlign=top;whiteSpace=wrap;html=1;jettyWidth=16;jettyHeight=6;fillColor=#d5e8d4;strokeColor=#82b366;" parent="1" vertex="1">
          <mxGeometry x="1834" y="296.5" width="130" height="30" as="geometry" />
        </mxCell>
        <mxCell id="mgZLQg_ETMRa4hPbAOP7-39" style="edgeStyle=orthogonalEdgeStyle;rounded=0;orthogonalLoop=1;jettySize=auto;html=1;endArrow=block;endFill=0;" parent="1" source="mgZLQg_ETMRa4hPbAOP7-14" target="mgZLQg_ETMRa4hPbAOP7-27" edge="1">
          <mxGeometry relative="1" as="geometry">
            <Array as="points">
              <mxPoint x="2330" y="62" />
            </Array>
          </mxGeometry>
        </mxCell>
        <mxCell id="mgZLQg_ETMRa4hPbAOP7-14" value="MARC" style="shape=module;align=left;spacingLeft=20;align=center;verticalAlign=top;whiteSpace=wrap;html=1;jettyWidth=16;jettyHeight=6;fillColor=#dae8fc;strokeColor=#6c8ebf;" parent="1" vertex="1">
          <mxGeometry x="2210" y="361" width="130" height="30" as="geometry" />
        </mxCell>
        <mxCell id="mgZLQg_ETMRa4hPbAOP7-32" style="edgeStyle=orthogonalEdgeStyle;rounded=0;orthogonalLoop=1;jettySize=auto;html=1;entryX=0;entryY=0.5;entryDx=0;entryDy=0;endArrow=block;endFill=0;" parent="1" source="mgZLQg_ETMRa4hPbAOP7-15" target="mgZLQg_ETMRa4hPbAOP7-22" edge="1">
          <mxGeometry relative="1" as="geometry">
            <Array as="points">
              <mxPoint x="1820" y="274" />
              <mxPoint x="1820" y="144" />
            </Array>
          </mxGeometry>
        </mxCell>
        <mxCell id="mgZLQg_ETMRa4hPbAOP7-15" value="RFHP&amp;nbsp; (movelets)" style="shape=module;align=left;spacingLeft=20;align=center;verticalAlign=top;whiteSpace=wrap;html=1;jettyWidth=16;jettyHeight=6;fillColor=#d5e8d4;strokeColor=#82b366;" parent="1" vertex="1">
          <mxGeometry x="1674" y="258" width="130" height="30" as="geometry" />
        </mxCell>
        <mxCell id="mgZLQg_ETMRa4hPbAOP7-33" style="edgeStyle=orthogonalEdgeStyle;rounded=0;orthogonalLoop=1;jettySize=auto;html=1;endArrow=block;endFill=0;" parent="1" source="mgZLQg_ETMRa4hPbAOP7-47" target="mgZLQg_ETMRa4hPbAOP7-22" edge="1">
          <mxGeometry relative="1" as="geometry">
            <Array as="points">
              <mxPoint x="1820" y="309" />
              <mxPoint x="1820" y="144" />
            </Array>
          </mxGeometry>
        </mxCell>
        <mxCell id="mgZLQg_ETMRa4hPbAOP7-48" style="edgeStyle=orthogonalEdgeStyle;rounded=0;orthogonalLoop=1;jettySize=auto;html=1;endArrow=block;endFill=0;" parent="1" source="mgZLQg_ETMRa4hPbAOP7-16" target="mgZLQg_ETMRa4hPbAOP7-22" edge="1">
          <mxGeometry relative="1" as="geometry">
            <Array as="points">
              <mxPoint x="1820" y="345" />
              <mxPoint x="1820" y="144" />
            </Array>
          </mxGeometry>
        </mxCell>
        <mxCell id="mgZLQg_ETMRa4hPbAOP7-16" value="SVM&amp;nbsp;(movelets)" style="shape=module;align=left;spacingLeft=20;align=center;verticalAlign=top;whiteSpace=wrap;html=1;jettyWidth=16;jettyHeight=6;fillColor=#d5e8d4;strokeColor=#82b366;" parent="1" vertex="1">
          <mxGeometry x="1674" y="330" width="130" height="30" as="geometry" />
        </mxCell>
        <mxCell id="mgZLQg_ETMRa4hPbAOP7-40" style="edgeStyle=orthogonalEdgeStyle;rounded=0;orthogonalLoop=1;jettySize=auto;html=1;endArrow=block;endFill=0;" parent="1" source="mgZLQg_ETMRa4hPbAOP7-17" target="mgZLQg_ETMRa4hPbAOP7-28" edge="1">
          <mxGeometry relative="1" as="geometry">
            <Array as="points">
              <mxPoint x="2160" y="191" />
              <mxPoint x="2160" y="144" />
            </Array>
          </mxGeometry>
        </mxCell>
        <mxCell id="mgZLQg_ETMRa4hPbAOP7-17" value="DeepestST" style="shape=module;align=left;spacingLeft=20;align=center;verticalAlign=top;whiteSpace=wrap;html=1;jettyWidth=16;jettyHeight=6;fillColor=#dae8fc;strokeColor=#6c8ebf;" parent="1" vertex="1">
          <mxGeometry x="2180" y="176" width="130" height="30" as="geometry" />
        </mxCell>
        <mxCell id="mgZLQg_ETMRa4hPbAOP7-41" style="edgeStyle=orthogonalEdgeStyle;rounded=0;orthogonalLoop=1;jettySize=auto;html=1;endArrow=block;endFill=0;" parent="1" source="mgZLQg_ETMRa4hPbAOP7-18" target="mgZLQg_ETMRa4hPbAOP7-28" edge="1">
          <mxGeometry relative="1" as="geometry">
            <Array as="points">
              <mxPoint x="2160" y="228" />
              <mxPoint x="2160" y="144" />
            </Array>
          </mxGeometry>
        </mxCell>
        <mxCell id="mgZLQg_ETMRa4hPbAOP7-18" value="MAT RF" style="shape=module;align=left;spacingLeft=20;align=center;verticalAlign=top;whiteSpace=wrap;html=1;jettyWidth=16;jettyHeight=6;fillColor=#dae8fc;strokeColor=#6c8ebf;" parent="1" vertex="1">
          <mxGeometry x="2180" y="213" width="130" height="30" as="geometry" />
        </mxCell>
        <mxCell id="mgZLQg_ETMRa4hPbAOP7-42" style="edgeStyle=orthogonalEdgeStyle;rounded=0;orthogonalLoop=1;jettySize=auto;html=1;endArrow=block;endFill=0;" parent="1" source="mgZLQg_ETMRa4hPbAOP7-19" target="mgZLQg_ETMRa4hPbAOP7-28" edge="1">
          <mxGeometry relative="1" as="geometry">
            <Array as="points">
              <mxPoint x="2160" y="264" />
              <mxPoint x="2160" y="144" />
            </Array>
          </mxGeometry>
        </mxCell>
        <mxCell id="mgZLQg_ETMRa4hPbAOP7-19" value="MAT XGBoost" style="shape=module;align=left;spacingLeft=20;align=center;verticalAlign=top;whiteSpace=wrap;html=1;jettyWidth=16;jettyHeight=6;fillColor=#dae8fc;strokeColor=#6c8ebf;" parent="1" vertex="1">
          <mxGeometry x="2180" y="249" width="130" height="30" as="geometry" />
        </mxCell>
        <mxCell id="mgZLQg_ETMRa4hPbAOP7-43" style="edgeStyle=orthogonalEdgeStyle;rounded=0;orthogonalLoop=1;jettySize=auto;html=1;endArrow=block;endFill=0;" parent="1" source="mgZLQg_ETMRa4hPbAOP7-20" target="mgZLQg_ETMRa4hPbAOP7-28" edge="1">
          <mxGeometry relative="1" as="geometry">
            <Array as="points">
              <mxPoint x="2160" y="301" />
              <mxPoint x="2160" y="144" />
            </Array>
          </mxGeometry>
        </mxCell>
        <mxCell id="mgZLQg_ETMRa4hPbAOP7-20" value="TULVAE" style="shape=module;align=left;spacingLeft=20;align=center;verticalAlign=top;whiteSpace=wrap;html=1;jettyWidth=16;jettyHeight=6;fillColor=#dae8fc;strokeColor=#6c8ebf;" parent="1" vertex="1">
          <mxGeometry x="2180" y="286" width="130" height="30" as="geometry" />
        </mxCell>
        <mxCell id="mgZLQg_ETMRa4hPbAOP7-44" style="edgeStyle=orthogonalEdgeStyle;rounded=0;orthogonalLoop=1;jettySize=auto;html=1;endArrow=block;endFill=0;" parent="1" source="mgZLQg_ETMRa4hPbAOP7-21" target="mgZLQg_ETMRa4hPbAOP7-28" edge="1">
          <mxGeometry relative="1" as="geometry">
            <Array as="points">
              <mxPoint x="2160" y="338" />
              <mxPoint x="2160" y="144" />
            </Array>
          </mxGeometry>
        </mxCell>
        <mxCell id="mgZLQg_ETMRa4hPbAOP7-21" value="BITULER" style="shape=module;align=left;spacingLeft=20;align=center;verticalAlign=top;whiteSpace=wrap;html=1;jettyWidth=16;jettyHeight=6;fillColor=#dae8fc;strokeColor=#6c8ebf;" parent="1" vertex="1">
          <mxGeometry x="2180" y="323" width="130" height="30" as="geometry" />
        </mxCell>
        <mxCell id="mgZLQg_ETMRa4hPbAOP7-30" style="edgeStyle=orthogonalEdgeStyle;rounded=0;orthogonalLoop=1;jettySize=auto;html=1;endArrow=block;endFill=0;" parent="1" source="mgZLQg_ETMRa4hPbAOP7-22" target="mgZLQg_ETMRa4hPbAOP7-27" edge="1">
          <mxGeometry relative="1" as="geometry" />
        </mxCell>
        <mxCell id="mgZLQg_ETMRa4hPbAOP7-22" value="MClassifier" style="swimlane;fontStyle=3;childLayout=stackLayout;horizontal=1;startSize=30;horizontalStack=0;resizeParent=1;resizeParentMax=0;resizeLast=0;collapsible=1;marginBottom=0;whiteSpace=wrap;html=1;" parent="1" vertex="1">
          <mxGeometry x="1894" y="124" width="110" height="40" as="geometry" />
        </mxCell>
        <mxCell id="mgZLQg_ETMRa4hPbAOP7-31" style="edgeStyle=orthogonalEdgeStyle;rounded=0;orthogonalLoop=1;jettySize=auto;html=1;endArrow=block;endFill=0;" parent="1" source="mgZLQg_ETMRa4hPbAOP7-26" target="mgZLQg_ETMRa4hPbAOP7-22" edge="1">
          <mxGeometry relative="1" as="geometry" />
        </mxCell>
        <mxCell id="mgZLQg_ETMRa4hPbAOP7-26" value="MHPSClassifier" style="swimlane;fontStyle=3;childLayout=stackLayout;horizontal=1;startSize=30;horizontalStack=0;resizeParent=1;resizeParentMax=0;resizeLast=0;collapsible=1;marginBottom=0;whiteSpace=wrap;html=1;" parent="1" vertex="1">
          <mxGeometry x="1894" y="194" width="110" height="40" as="geometry" />
        </mxCell>
        <mxCell id="mgZLQg_ETMRa4hPbAOP7-27" value="AbstractClassifier" style="swimlane;fontStyle=3;childLayout=stackLayout;horizontal=1;startSize=30;horizontalStack=0;resizeParent=1;resizeParentMax=0;resizeLast=0;collapsible=1;marginBottom=0;whiteSpace=wrap;html=1;" parent="1" vertex="1">
          <mxGeometry x="1950" y="40" width="140" height="44" as="geometry" />
        </mxCell>
        <mxCell id="mgZLQg_ETMRa4hPbAOP7-29" style="edgeStyle=orthogonalEdgeStyle;rounded=0;orthogonalLoop=1;jettySize=auto;html=1;endArrow=block;endFill=0;" parent="1" source="mgZLQg_ETMRa4hPbAOP7-28" target="mgZLQg_ETMRa4hPbAOP7-27" edge="1">
          <mxGeometry relative="1" as="geometry" />
        </mxCell>
        <mxCell id="mgZLQg_ETMRa4hPbAOP7-28" value="HPSClassifier" style="swimlane;fontStyle=3;childLayout=stackLayout;horizontal=1;startSize=30;horizontalStack=0;resizeParent=1;resizeParentMax=0;resizeLast=0;collapsible=1;marginBottom=0;whiteSpace=wrap;html=1;" parent="1" vertex="1">
          <mxGeometry x="2034" y="124" width="110" height="40" as="geometry" />
        </mxCell>
        <mxCell id="mgZLQg_ETMRa4hPbAOP7-49" style="edgeStyle=orthogonalEdgeStyle;rounded=0;orthogonalLoop=1;jettySize=auto;html=1;endArrow=block;endFill=0;" parent="1" source="mgZLQg_ETMRa4hPbAOP7-46" target="mgZLQg_ETMRa4hPbAOP7-22" edge="1">
          <mxGeometry relative="1" as="geometry">
            <Array as="points">
              <mxPoint x="1820" y="381" />
              <mxPoint x="1820" y="144" />
            </Array>
          </mxGeometry>
        </mxCell>
        <mxCell id="mgZLQg_ETMRa4hPbAOP7-46" value="DT (movelets)" style="shape=module;align=left;spacingLeft=20;align=center;verticalAlign=top;whiteSpace=wrap;html=1;jettyWidth=16;jettyHeight=6;fillColor=#d5e8d4;strokeColor=#82b366;" parent="1" vertex="1">
          <mxGeometry x="1674" y="366" width="130" height="30" as="geometry" />
        </mxCell>
        <mxCell id="mgZLQg_ETMRa4hPbAOP7-47" value="RF&amp;nbsp; (movelets)" style="shape=module;align=left;spacingLeft=20;align=center;verticalAlign=top;whiteSpace=wrap;html=1;jettyWidth=16;jettyHeight=6;fillColor=#d5e8d4;strokeColor=#82b366;" parent="1" vertex="1">
          <mxGeometry x="1674" y="294" width="130" height="30" as="geometry" />
        </mxCell>
        <mxCell id="mgZLQg_ETMRa4hPbAOP7-63" style="edgeStyle=orthogonalEdgeStyle;rounded=0;orthogonalLoop=1;jettySize=auto;html=1;endArrow=block;endFill=0;" parent="1" source="mgZLQg_ETMRa4hPbAOP7-12" target="mgZLQg_ETMRa4hPbAOP7-28" edge="1">
          <mxGeometry relative="1" as="geometry">
            <Array as="points">
              <mxPoint x="2090" y="274" />
              <mxPoint x="2090" y="274" />
            </Array>
          </mxGeometry>
        </mxCell>
        <mxCell id="mgZLQg_ETMRa4hPbAOP7-64" style="edgeStyle=orthogonalEdgeStyle;rounded=0;orthogonalLoop=1;jettySize=auto;html=1;endArrow=block;endFill=0;" parent="1" source="mgZLQg_ETMRa4hPbAOP7-12" target="mgZLQg_ETMRa4hPbAOP7-26" edge="1">
          <mxGeometry relative="1" as="geometry">
            <Array as="points">
              <mxPoint x="2050" y="214" />
            </Array>
          </mxGeometry>
        </mxCell>
        <mxCell id="mgZLQg_ETMRa4hPbAOP7-66" style="edgeStyle=orthogonalEdgeStyle;rounded=0;orthogonalLoop=1;jettySize=auto;html=1;endArrow=block;endFill=0;" parent="1" source="mgZLQg_ETMRa4hPbAOP7-65" target="mgZLQg_ETMRa4hPbAOP7-12" edge="1">
          <mxGeometry relative="1" as="geometry" />
        </mxCell>
        <mxCell id="mgZLQg_ETMRa4hPbAOP7-65" value="MSTEC" style="shape=module;align=left;spacingLeft=20;align=center;verticalAlign=top;whiteSpace=wrap;html=1;jettyWidth=16;jettyHeight=6;fillColor=#fff2cc;strokeColor=#d6b656;" parent="1" vertex="1">
          <mxGeometry x="2001" y="358" width="130" height="30" as="geometry" />
        </mxCell>
        <mxCell id="BebV0c_RTAwMKaFlxQ5s-1" value="mat-model" style="shape=umlFrame;whiteSpace=wrap;html=1;pointerEvents=0;width=110;height=30;" parent="1" vertex="1">
          <mxGeometry x="480" y="66" width="170" height="60" as="geometry" />
        </mxCell>
        <mxCell id="ncjso_DGpGOnADHclqbK-2" value="mat-similarity" style="shape=umlFrame;whiteSpace=wrap;html=1;pointerEvents=0;width=140;height=31;" vertex="1" parent="1">
          <mxGeometry x="670" y="499" width="170" height="190" as="geometry" />
        </mxCell>
        <mxCell id="ncjso_DGpGOnADHclqbK-3" value="mat-summarization" style="shape=umlFrame;whiteSpace=wrap;html=1;pointerEvents=0;width=133;height=26;" vertex="1" parent="1">
          <mxGeometry x="490" y="499" width="170" height="190" as="geometry" />
        </mxCell>
        <mxCell id="ncjso_DGpGOnADHclqbK-4" value="mat-clustering" style="shape=umlFrame;whiteSpace=wrap;html=1;pointerEvents=0;width=133;height=26;" vertex="1" parent="1">
          <mxGeometry x="670" y="285.5" width="170" height="190" as="geometry" />
        </mxCell>
      </root>
    </mxGraphModel>
  </diagram>
</mxfile>
